<svg version="1.1" id="Layer_1" xmlns="http://www.w3.org/2000/svg" x="0" y="0" viewBox="0 0 100 100" xml:space="preserve" preserveAspectRatio="xMidYMid" width="200" height="200" xmlns:xlink="http://www.w3.org/1999/xlink" style="margin-top:0px;margin-right:0px;margin-bottom:0px;margin-left:0px;display:block;shape-rendering:auto;background-position-x:0%;background-position-y:0%;background-size:auto;background-origin:padding-box;background-clip:border-box;fill:rgb(0, 0, 0);stroke:none;transform:none;opacity:1;background:scroll rgba(0, 0, 0, 0) none  repeat;width:200px;height:200px;;animation:none"><g class="ldl-scale" style="transform-origin:50px 50px;transform:matrix(0.8, 0, 0, 0.8, 0, 0);fill:rgb(0, 0, 0);stroke:none;opacity:1;;animation:none"><g class="ldl-ani" style="fill:rgb(0, 0, 0);stroke:none;transform:none;opacity:1;;animation:none"><g class="ldl-layer" style="fill:rgb(0, 0, 0);stroke:none;transform:none;opacity:1;;animation:none"><g class="ldl-ani" style="transform-box:view-box;opacity:1;transform-origin:50px 50px;transform:matrix(0.710054, -0.704147, 0.704147, 0.710054, 0, 0);animation-name:animate;animation-duration:1s;animation-timing-function:linear;animation-delay:-0.75s;animation-iteration-count:infinite;animation-direction:normal;animation-fill-mode:forwards;animation-play-state:paused;fill:rgb(0, 0, 0);stroke:none;;animation:none"><circle cx="50" cy="50" r="40" fill="#333" style="stroke-width:0px;fill:rgb(249, 129, 0);stroke:none;transform:none;opacity:1;;animation:none"></circle></g></g>
<g class="ldl-layer" style="fill:rgb(0, 0, 0);stroke:none;transform:none;opacity:1;;animation:none"><g class="ldl-ani" style="transform-box:view-box;opacity:1;transform-origin:50px 50px;transform:matrix(1, 0, 0, 1, 0, 0);animation-name:animate;animation-duration:1s;animation-timing-function:linear;animation-delay:-1s;animation-iteration-count:infinite;animation-direction:normal;animation-fill-mode:forwards;animation-play-state:paused;fill:rgb(0, 0, 0);stroke:none;;animation:none"><path d="M67.683 30.297c-.191-.825-.783-1.577-1.624-2.062L63.055 26.5c-.84-.485-1.787-.622-2.598-.376-.612.186-1.094.585-1.358 1.121l-2.814 5.737c-.383.781-.243 1.697.288 2.471l-4.784 8.285c-2.55-.972-4.952-1.138-6.837-.432-1.65.619-2.841 1.882-3.445 3.651l-1.252 3.665a4.86 4.86 0 0 1-1.5 2.177l-3.884 3.26c-1.881 1.58-2.823 4.053-2.583 6.787.296 3.38 2.29 6.447 5.332 8.204l2.572 1.485a10.874 10.874 0 0 0 5.432 1.469c1.49 0 2.972-.316 4.339-.953 2.487-1.16 4.159-3.212 4.586-5.631l.882-4.993a4.857 4.857 0 0 1 1.135-2.388l2.548-2.917c1.23-1.408 1.728-3.071 1.439-4.809-.33-1.985-1.675-3.983-3.792-5.705l4.783-8.285c.082.006.166.017.247.017.839 0 1.595-.345 2.038-1.004l3.561-5.305c.333-.495.437-1.111.293-1.734zm-17.597 27.3a3.629 3.629 0 0 1-.365 2.771 3.63 3.63 0 0 1-2.218 1.702 3.629 3.629 0 0 1-2.771-.365 3.63 3.63 0 0 1-1.702-2.217 3.624 3.624 0 0 1 .365-2.771 3.63 3.63 0 0 1 3.049-1.82c.04-.001.08-.008.119-.008.351 0 .698.056 1.034.157l1.452.839a3.631 3.631 0 0 1 1.037 1.712zm-3.883 9.244l-.949 1.644-6.655-3.842.949-1.644 6.655 3.842zm19.611-35.866l-1.555 2.316-2.006 2.989c-.083.124-.359.192-.701.133a1.785 1.785 0 0 1-.59-.215l-.286-.165-1.684-.972-.286-.165a1.788 1.788 0 0 1-.481-.403c-.222-.267-.301-.54-.235-.674l1.585-3.232 1.229-2.505c.038-.077.133-.119.206-.141a.946.946 0 0 1 .274-.037c.227 0 .516.064.822.24l3.004 1.734c.449.259.669.608.724.847.017.075.028.179-.02.25z" fill="#fff" style="stroke-width:0px;fill:rgb(255, 255, 255);stroke:none;transform:none;opacity:1;;animation:none"></path></g></g>
<metadata xmlns:d="https://loading.io/stock/" style="fill:rgb(0, 0, 0);stroke:none;transform:none;opacity:1;;animation:none"><d:name style="fill:rgb(0, 0, 0);stroke:none;transform:none;opacity:1;;animation:none">band</d:name>


<d:tags style="fill:rgb(0, 0, 0);stroke:none;transform:none;opacity:1;;animation:none">band,guitar,bass,musician,music,musical instrument,composer,player,rock star,pop music</d:tags>


<d:license style="fill:rgb(0, 0, 0);stroke:none;transform:none;opacity:1;;animation:none">by</d:license>


<d:slug style="fill:rgb(0, 0, 0);stroke:none;transform:none;opacity:1;;animation:none">5sskxx</d:slug></metadata></g></g>
<STYLE type="text/css">@keyframes animate { 0.00% {animation-timing-function: cubic-bezier(0.51,0.03,0.89,0.56);transform: translate(0.00px,0.00px) rotate(0.00deg) scale(1.00, 1.00) skew(0deg, 0.00deg) ;opacity: 1.00;}52.00% {animation-timing-function: cubic-bezier(0.17,0.39,0.55,0.91);transform: translate(0.00px,0.00px) rotate(211.13deg) ;}100.00% {animation-timing-function: cubic-bezier(0.17,0.39,0.55,0.91);transform: translate(0.00px,0.00px) rotate(360.00deg) ;} }</STYLE><!-- [ldio] generated by https://loading.io --></svg>