<svg width="32" height="29" viewBox="0 0 32 29" fill="none" xmlns="http://www.w3.org/2000/svg">
    <g filter="url(#filter0_d_1593_254)">
        <path fill-rule="evenodd" clip-rule="evenodd" d="M4.3999 0.900024H24.5499V4.15002H23.2499V2.20002H5.6999V17.15H19.6015V18.45H4.3999V0.900024ZM23.8999 9.35002C24.4171 9.35002 24.9131 9.14458 25.2788 8.77888C25.6445 8.41319 25.8499 7.9172 25.8499 7.40002C25.8499 6.88285 25.6445 6.38686 25.2788 6.02117C24.9131 5.65547 24.4171 5.45002 23.8999 5.45002C23.3827 5.45002 22.8867 5.65547 22.521 6.02117C22.1553 6.38686 21.9499 6.88285 21.9499 7.40002C21.9499 7.9172 22.1553 8.41319 22.521 8.77888C22.8867 9.14458 23.3827 9.35002 23.8999 9.35002ZM25.2201 10.6565C26.0644 10.6565 26.7326 11.0361 27.17 11.6224C27.5789 12.1717 27.7518 12.8509 27.7908 13.4782C27.829 14.1216 27.7414 14.7663 27.5328 15.3762C27.3378 15.9417 27.0082 16.5267 26.4999 16.9277V23.325C26.5004 23.57 26.4086 23.8062 26.2429 23.9866C26.0771 24.1669 25.8496 24.2783 25.6054 24.2986C25.3613 24.3188 25.1185 24.2464 24.9253 24.0958C24.7322 23.9451 24.6028 23.7273 24.5629 23.4856L23.7244 18.45H23.5307L22.583 23.5044C22.538 23.743 22.4056 23.9562 22.2118 24.1023C22.0179 24.2484 21.7765 24.3169 21.5348 24.2945C21.2931 24.2721 21.0684 24.1603 20.9048 23.981C20.7411 23.8017 20.6502 23.5678 20.6499 23.325V14.0515C20.5199 14.2495 20.3916 14.4486 20.2651 14.6488L20.2144 14.7288L20.2014 14.7496L20.1982 14.7554C20.1105 14.8961 19.9885 15.0121 19.8436 15.0925C19.6988 15.1729 19.5358 15.2151 19.3701 15.215H16.1201C15.8615 15.215 15.6135 15.1123 15.4306 14.9294C15.2478 14.7466 15.1451 14.4986 15.1451 14.24C15.1451 13.9814 15.2478 13.7334 15.4306 13.5505C15.6135 13.3677 15.8615 13.265 16.1201 13.265H18.8351C18.9931 13.0206 19.2011 12.7034 19.4195 12.3849C19.647 12.0527 19.8979 11.7011 20.1215 11.4255C20.23 11.2909 20.3516 11.1505 20.4738 11.0355C20.5336 10.9789 20.6168 10.9055 20.7182 10.8405C20.8971 10.723 21.106 10.6594 21.3201 10.6572H25.2201V10.6565Z" fill="#3A4374"/>
    </g>
    <defs>
        <filter id="filter0_d_1593_254" x="0.399902" y="0.900024" width="31.3997" height="31.4019" filterUnits="userSpaceOnUse" color-interpolation-filters="sRGB">
            <feFlood flood-opacity="0" result="BackgroundImageFix"/>
            <feColorMatrix in="SourceAlpha" type="matrix" values="0 0 0 0 0 0 0 0 0 0 0 0 0 0 0 0 0 0 127 0" result="hardAlpha"/>
            <feOffset dy="4"/>
            <feGaussianBlur stdDeviation="2"/>
            <feComposite in2="hardAlpha" operator="out"/>
            <feColorMatrix type="matrix" values="0 0 0 0 0 0 0 0 0 0 0 0 0 0 0 0 0 0 0.25 0"/>
            <feBlend mode="normal" in2="BackgroundImageFix" result="effect1_dropShadow_1593_254"/>
            <feBlend mode="normal" in="SourceGraphic" in2="effect1_dropShadow_1593_254" result="shape"/>
        </filter>
    </defs>
</svg>

