<svg width="45" height="46" viewBox="0 0 45 46" fill="none" xmlns="http://www.w3.org/2000/svg">
    <g clip-path="url(#clip0_1067_784)">
        <g filter="url(#filter0_d_1067_784)">
            <path d="M39.8143 10.581L22.9393 4.95598C22.653 4.86786 22.3468 4.86786 22.0604 4.95598L5.20302 10.581H5.16787L4.99209 10.6689H4.97451L4.79873 10.7743C4.79873 10.7919 4.78115 10.7919 4.76357 10.8095L4.62295 10.9325L4.4999 11.0732C4.4999 11.0907 4.48232 11.0907 4.48232 11.1083L4.37685 11.2665C4.37685 11.2841 4.37685 11.2841 4.35927 11.3017L4.28896 11.4599L4.23623 11.6532V11.706C4.21889 11.7749 4.21295 11.8461 4.21865 11.9169V25.9794C4.21865 26.3524 4.36681 26.7101 4.63053 26.9738C4.89425 27.2375 5.25194 27.3857 5.6249 27.3857C5.99786 27.3857 6.35554 27.2375 6.61927 26.9738C6.88299 26.7101 7.03115 26.3524 7.03115 25.9794V13.8681L12.9374 15.8368C11.8278 17.6129 11.2428 19.6665 11.2499 21.7607C11.2505 23.6653 11.7347 25.5385 12.6571 27.2049C13.5794 28.8713 14.9097 30.2762 16.5233 31.288C13.1701 32.5565 10.3075 34.859 8.34951 37.8622C8.14994 38.1778 8.08232 38.5592 8.16123 38.9241C8.24014 39.2891 8.45926 39.6084 8.77138 39.8134C8.92455 39.9149 9.09634 39.985 9.27679 40.0196C9.45723 40.0542 9.64276 40.0527 9.82261 40.015C10.0025 39.9774 10.1731 39.9045 10.3245 39.8005C10.476 39.6965 10.6053 39.5635 10.705 39.4091C11.9814 37.443 13.729 35.8271 15.7889 34.7085C17.8489 33.5898 20.1558 33.0039 22.4999 33.0039C24.844 33.0039 27.1509 33.5898 29.2108 34.7085C31.2708 35.8271 33.0184 37.443 34.2948 39.4091C34.4232 39.604 34.5981 39.764 34.8037 39.8744C35.0093 39.9849 35.2391 40.0425 35.4725 40.0419C35.7419 40.0448 36.0057 39.965 36.2284 39.8134C36.5405 39.6084 36.7596 39.2891 36.8386 38.9241C36.9175 38.5592 36.8498 38.1778 36.6503 37.8622C34.6923 34.859 31.8297 32.5565 28.4765 31.288C30.0901 30.2762 31.4204 28.8713 32.3427 27.2049C33.2651 25.5385 33.7492 23.6653 33.7499 21.7607C33.757 19.6665 33.172 17.6129 32.0624 15.8368L39.8143 13.2529C40.0957 13.1604 40.3407 12.9814 40.5143 12.7416C40.688 12.5017 40.7815 12.2131 40.7815 11.9169C40.7815 11.6208 40.688 11.3322 40.5143 11.0923C40.3407 10.8524 40.0957 10.6735 39.8143 10.581ZM22.4999 30.1982C20.2621 30.1982 18.116 29.3092 16.5337 27.7269C14.9513 26.1445 14.0624 23.9984 14.0624 21.7607C14.0658 19.9602 14.6379 18.2068 15.6972 16.7509L22.0604 18.8779C22.3459 18.9718 22.6539 18.9718 22.9393 18.8779L29.3026 16.7509C30.3618 18.2068 30.934 19.9602 30.9374 21.7607C30.9374 23.9984 30.0484 26.1445 28.4661 27.7269C26.8838 29.3092 24.7377 30.1982 22.4999 30.1982Z" fill="#11285E"/>
        </g>
    </g>
    <defs>
        <filter id="filter0_d_1067_784" x="-0.121008" y="4.88989" width="45.2401" height="43.8297" filterUnits="userSpaceOnUse" color-interpolation-filters="sRGB">
            <feFlood flood-opacity="0" result="BackgroundImageFix"/>
            <feColorMatrix in="SourceAlpha" type="matrix" values="0 0 0 0 0 0 0 0 0 0 0 0 0 0 0 0 0 0 127 0" result="hardAlpha"/>
            <feOffset dy="4.33756"/>
            <feGaussianBlur stdDeviation="2.16878"/>
            <feComposite in2="hardAlpha" operator="out"/>
            <feColorMatrix type="matrix" values="0 0 0 0 0 0 0 0 0 0 0 0 0 0 0 0 0 0 0.25 0"/>
            <feBlend mode="normal" in2="BackgroundImageFix" result="effect1_dropShadow_1067_784"/>
            <feBlend mode="normal" in="SourceGraphic" in2="effect1_dropShadow_1067_784" result="shape"/>
        </filter>
        <clipPath id="clip0_1067_784">
            <rect width="45" height="45" fill="white" transform="translate(0 0.666748)"/>
        </clipPath>
    </defs>
</svg>
